<svg xmlns="http://www.w3.org/2000/svg" xmlns:xlink="http://www.w3.org/1999/xlink" width="500" zoomAndPan="magnify" viewBox="0 0 375 374.999991" height="500" preserveAspectRatio="xMidYMid meet" version="1.0"><defs><g/><clipPath id="dde654d035"><path d="M 144 156 L 369.722656 156 L 369.722656 343.921875 L 144 343.921875 Z M 144 156 " clip-rule="nonzero"/></clipPath><clipPath id="9106573102"><path d="M 5.222656 93 L 119 93 L 119 245 L 5.222656 245 Z M 5.222656 93 " clip-rule="nonzero"/></clipPath><clipPath id="0c8231c909"><path d="M 94 48.421875 L 239 48.421875 L 239 180 L 94 180 Z M 94 48.421875 " clip-rule="nonzero"/></clipPath><clipPath id="2da8d0d056"><path d="M 15.199219 211.644531 L 18.40625 211.644531 L 18.40625 215 L 15.199219 215 Z M 15.199219 211.644531 " clip-rule="nonzero"/></clipPath><clipPath id="888f5a76c6"><path d="M 16.199219 212.550781 C 17.398438 213.226562 16.800781 214.050781 16.574219 214.050781 C 16.273438 214.050781 15.449219 212.550781 15.601562 212.175781 C 15.675781 211.949219 16.050781 211.800781 16.351562 211.800781 C 16.800781 211.875 18.074219 212.699219 18.148438 213.226562 C 18.226562 213.601562 17.773438 214.351562 17.476562 214.425781 C 17.023438 214.5 15.449219 213.074219 15.523438 212.773438 C 15.601562 212.476562 17.476562 212.175781 17.625 212.398438 C 17.773438 212.550781 17.324219 213.523438 17.023438 213.601562 C 16.648438 213.675781 15.300781 212.550781 15.375 212.25 C 15.449219 211.949219 16.726562 211.648438 17.175781 211.800781 C 17.550781 211.875 17.851562 212.25 18 212.550781 C 18.148438 212.851562 18.074219 213.601562 17.851562 213.75 C 17.625 213.898438 16.726562 213.148438 16.726562 213.226562 C 16.726562 213.300781 17.476562 213.824219 17.476562 213.898438 C 17.398438 213.976562 15.523438 213.375 15.375 212.925781 C 15.226562 212.625 15.523438 212.023438 15.75 211.949219 C 16.199219 211.800781 18.148438 213.523438 18.300781 214.125 C 18.375 214.425781 18.148438 214.875 17.925781 214.949219 C 17.699219 215.023438 16.800781 214.574219 16.800781 214.351562 C 16.800781 214.125 17.476562 213.449219 17.699219 213.523438 C 17.925781 213.601562 18.300781 214.574219 18.148438 214.726562 C 18 214.875 17.175781 214.875 16.875 214.648438 C 16.425781 214.273438 16.125 212.324219 16.425781 212.101562 C 16.648438 211.875 18.148438 212.625 18.226562 212.925781 C 18.300781 213.226562 17.550781 213.824219 17.175781 213.824219 C 16.648438 213.824219 15.375 212.625 15.375 212.25 C 15.375 212.023438 15.976562 211.726562 16.273438 211.726562 C 16.648438 211.726562 17.476562 212.101562 17.625 212.398438 C 17.773438 212.699219 17.476562 213.449219 17.175781 213.601562 C 16.800781 213.75 15.523438 213.074219 15.523438 212.773438 C 15.523438 212.550781 16.050781 212.101562 16.351562 212.101562 C 16.800781 212.101562 17.851562 212.625 18 213.074219 C 18.148438 213.449219 17.773438 214.351562 17.476562 214.425781 C 17.175781 214.5 16.425781 213.675781 16.351562 213.300781 C 16.351562 213.074219 16.648438 212.550781 16.800781 212.550781 C 16.949219 212.550781 17.398438 213.523438 17.25 213.75 C 17.101562 213.976562 15.75 213.976562 15.601562 213.75 C 15.449219 213.523438 16.199219 212.550781 16.199219 212.550781 " clip-rule="nonzero"/></clipPath><clipPath id="f813608e55"><path d="M 22.566406 214.023438 L 26.710938 214.023438 L 26.710938 217.300781 L 22.566406 217.300781 Z M 22.566406 214.023438 " clip-rule="nonzero"/></clipPath><clipPath id="b5f8ca99bb"><path d="M 24.148438 216.601562 C 23.101562 215.25 23.550781 214.273438 23.925781 214.199219 C 24.523438 214.050781 26.398438 215.398438 26.550781 216 C 26.625 216.375 26.324219 216.976562 26.023438 217.125 C 25.726562 217.273438 25.125 217.125 24.75 216.824219 C 24.226562 216.449219 23.324219 215.175781 23.476562 214.800781 C 23.625 214.5 24.898438 214.425781 25.351562 214.574219 C 25.726562 214.726562 26.175781 215.25 26.25 215.550781 C 26.324219 215.851562 26.25 216.226562 26.101562 216.375 C 25.875 216.601562 25.199219 216.523438 24.675781 216.449219 C 24.074219 216.300781 22.949219 215.851562 22.726562 215.398438 C 22.574219 215.101562 22.726562 214.425781 23.023438 214.273438 C 23.476562 214.050781 25.875 215.324219 25.949219 215.851562 C 26.023438 216.148438 25.125 216.898438 24.898438 216.824219 C 24.75 216.75 24.523438 216 24.675781 215.773438 C 24.824219 215.550781 25.648438 215.476562 25.800781 215.625 C 25.949219 215.773438 25.574219 216.898438 25.199219 216.976562 C 24.675781 217.125 22.949219 216 22.726562 215.398438 C 22.574219 215.023438 22.726562 214.425781 23.023438 214.273438 C 23.550781 214.050781 26.175781 215.175781 26.324219 215.699219 C 26.398438 216 25.949219 216.523438 25.574219 216.601562 C 25.125 216.75 24.074219 216.226562 23.699219 215.925781 C 23.476562 215.699219 23.25 215.398438 23.324219 215.175781 C 23.398438 214.949219 23.773438 214.5 24.148438 214.5 C 24.75 214.5 26.324219 215.476562 26.550781 216 C 26.699219 216.300781 26.625 216.75 26.476562 216.898438 C 26.25 217.125 25.5 216.976562 25.125 216.824219 C 24.675781 216.601562 24 216 24 215.699219 C 24 215.476562 24.375 215.101562 24.601562 215.101562 C 24.824219 215.101562 25.425781 216 25.351562 216.226562 C 25.273438 216.449219 24.148438 216.601562 24.148438 216.601562 " clip-rule="nonzero"/></clipPath><clipPath id="f4beb3c6c4"><path d="M 29.003906 217.019531 L 34.957031 217.019531 L 34.957031 220.753906 L 29.003906 220.753906 Z M 29.003906 217.019531 " clip-rule="nonzero"/></clipPath><clipPath id="b583fc64c7"><path d="M 29.625 217.648438 C 32.023438 217.800781 33.675781 218.851562 33.75 219.449219 C 33.824219 219.824219 33.449219 220.351562 33.074219 220.5 C 32.550781 220.726562 31.351562 220.351562 30.75 219.976562 C 30.148438 219.601562 29.324219 218.550781 29.476562 218.101562 C 29.625 217.726562 30.601562 217.273438 31.199219 217.351562 C 32.101562 217.5 34.273438 219.523438 34.273438 220.050781 C 34.273438 220.273438 33.976562 220.5 33.675781 220.5 C 33.148438 220.574219 32.023438 219.898438 31.5 219.375 C 31.050781 218.925781 30.601562 218.101562 30.75 217.726562 C 30.898438 217.351562 31.800781 217.050781 32.324219 217.199219 C 33.148438 217.425781 34.949219 219.601562 34.800781 220.125 C 34.726562 220.425781 33.75 220.726562 33.601562 220.574219 C 33.449219 220.425781 33.675781 219.300781 33.898438 219.226562 C 34.050781 219.148438 34.800781 220.050781 34.726562 220.273438 C 34.648438 220.5 33.898438 220.648438 33.449219 220.5 C 32.851562 220.273438 31.875 219.148438 31.726562 218.625 C 31.648438 218.324219 31.800781 217.875 31.949219 217.800781 C 32.175781 217.726562 33.375 218.625 33.375 219 C 33.375 219.300781 33.074219 219.675781 32.773438 219.75 C 32.324219 219.898438 30.75 219.226562 30.601562 218.851562 C 30.523438 218.625 30.675781 218.175781 30.898438 218.101562 C 31.351562 217.949219 33.226562 218.625 33.523438 219.148438 C 33.75 219.523438 33.601562 220.273438 33.300781 220.425781 C 32.699219 220.726562 29.625 219.675781 29.25 219 C 29.023438 218.625 29.625 217.648438 29.625 217.648438 " clip-rule="nonzero"/></clipPath><clipPath id="b1f1c9dfda"><path d="M 37.351562 220.410156 L 41.175781 220.410156 L 41.175781 223.671875 L 37.351562 223.671875 Z M 37.351562 220.410156 " clip-rule="nonzero"/></clipPath><clipPath id="5425f51dbe"><path d="M 38.398438 222 C 37.574219 220.574219 38.550781 220.425781 39.074219 220.648438 C 39.824219 220.949219 41.175781 222.75 41.101562 223.199219 C 41.023438 223.425781 40.726562 223.648438 40.425781 223.648438 C 39.824219 223.648438 38.101562 222.601562 37.726562 222.074219 C 37.574219 221.773438 37.5 221.398438 37.648438 221.175781 C 37.800781 220.949219 38.550781 220.800781 38.699219 220.949219 C 38.925781 221.101562 38.925781 222.074219 38.699219 222.226562 C 38.550781 222.375 37.800781 222.226562 37.648438 222 C 37.5 221.773438 37.574219 221.175781 37.726562 221.023438 C 37.875 220.875 38.324219 220.726562 38.625 220.875 C 39.148438 221.101562 40.351562 223.199219 40.199219 223.351562 C 40.050781 223.5 37.800781 222.226562 37.5 221.699219 C 37.351562 221.398438 37.351562 221.023438 37.5 220.800781 C 37.726562 220.574219 38.625 220.425781 38.773438 220.574219 C 38.925781 220.800781 38.398438 222 38.398438 222 " clip-rule="nonzero"/></clipPath><clipPath id="c7f2e69347"><path d="M 44.074219 223.9375 L 48.714844 223.9375 L 48.714844 227.714844 L 44.074219 227.714844 Z M 44.074219 223.9375 " clip-rule="nonzero"/></clipPath><clipPath id="418e0c850b"><path d="M 45.148438 224.324219 C 48.449219 226.648438 48.523438 227.101562 48.375 227.324219 C 48.226562 227.550781 47.925781 227.699219 47.550781 227.625 C 46.800781 227.550781 44.773438 226.425781 44.476562 225.675781 C 44.324219 225.148438 44.625 224.324219 44.925781 224.101562 C 45.148438 223.949219 45.601562 224.023438 45.976562 224.25 C 46.726562 224.625 48.675781 226.949219 48.523438 227.175781 C 48.375 227.398438 44.773438 225.898438 44.324219 225.226562 C 44.101562 224.925781 44.101562 224.550781 44.25 224.324219 C 44.398438 224.101562 45.074219 223.949219 45.300781 224.101562 C 45.523438 224.25 45.675781 224.925781 45.523438 225.148438 C 45.375 225.375 44.625 225.449219 44.398438 225.300781 C 44.175781 225.148438 44.101562 224.625 44.175781 224.398438 C 44.25 224.175781 44.625 223.949219 45 223.949219 C 45.675781 224.023438 47.398438 225.300781 47.699219 225.976562 C 47.925781 226.351562 47.851562 227.101562 47.699219 227.175781 C 47.476562 227.324219 46.425781 226.351562 45.976562 225.976562 C 45.675781 225.75 45.226562 225.523438 45.226562 225.375 C 45.300781 225.148438 46.273438 224.773438 46.726562 224.925781 C 47.324219 225.074219 48.449219 226.125 48.449219 226.648438 C 48.449219 227.023438 47.925781 227.550781 47.550781 227.625 C 47.023438 227.699219 46.050781 226.949219 45.449219 226.5 C 44.925781 226.125 44.101562 225.449219 44.101562 225.074219 C 44.101562 224.773438 45.148438 224.324219 45.148438 224.324219 " clip-rule="nonzero"/></clipPath><clipPath id="e1efb1514a"><path d="M 52 227.300781 L 56.484375 227.300781 L 56.484375 230.5625 L 52 230.5625 Z M 52 227.300781 " clip-rule="nonzero"/></clipPath><clipPath id="d663746b29"><path d="M 53.101562 227.324219 C 56.476562 229.800781 55.5 230.476562 55.351562 230.398438 C 55.199219 230.324219 55.648438 228.976562 55.800781 228.976562 C 55.949219 228.976562 56.476562 230.101562 56.324219 230.25 C 56.023438 230.550781 52.875 229.199219 52.351562 228.601562 C 52.125 228.300781 51.976562 227.851562 52.125 227.625 C 52.273438 227.398438 53.101562 227.324219 53.101562 227.324219 " clip-rule="nonzero"/></clipPath><clipPath id="1e2c1a6f9f"><path d="M 68.167969 234.871094 L 73.507812 234.871094 L 73.507812 239.285156 L 68.167969 239.285156 Z M 68.167969 234.871094 " clip-rule="nonzero"/></clipPath><clipPath id="0444b8a05c"><path d="M 68.699219 234.898438 C 73.5 238.351562 73.351562 238.949219 73.125 239.101562 C 72.898438 239.25 72.375 239.175781 72.226562 239.023438 C 72.074219 238.800781 72.449219 237.675781 72.601562 237.675781 C 72.824219 237.675781 73.425781 238.648438 73.351562 238.875 C 73.273438 239.101562 72.824219 239.25 72.449219 239.175781 C 71.773438 239.023438 70.800781 237.148438 69.976562 236.699219 C 69.449219 236.398438 68.550781 236.625 68.324219 236.324219 C 68.175781 236.023438 68.699219 234.898438 68.699219 234.898438 " clip-rule="nonzero"/></clipPath><clipPath id="08f587160e"><path d="M 67.164062 234 L 73 234 L 73 238.683594 L 67.164062 238.683594 Z M 67.164062 234 " clip-rule="nonzero"/></clipPath><clipPath id="0c4d45dcd5"><path d="M 68.625 235.5 C 71.925781 236.625 72.75 237.074219 72.898438 237.523438 C 72.976562 237.824219 72.898438 238.199219 72.75 238.351562 C 72.601562 238.5 72.226562 238.574219 71.773438 238.5 C 70.800781 238.273438 67.5 236.101562 67.351562 235.199219 C 67.273438 234.75 67.875 234 68.101562 234 C 68.324219 234 68.699219 234.898438 68.625 235.125 C 68.550781 235.351562 67.800781 235.574219 67.574219 235.425781 C 67.351562 235.273438 67.199219 234.601562 67.351562 234.375 C 67.5 234.148438 67.875 234 68.25 234.074219 C 69.226562 234.226562 73.050781 237.148438 72.976562 237.898438 C 72.976562 238.199219 72.375 238.574219 71.925781 238.574219 C 71.023438 238.648438 68.175781 237.449219 67.949219 236.773438 C 67.800781 236.398438 68.625 235.5 68.625 235.5 " clip-rule="nonzero"/></clipPath><clipPath id="6f750789da"><path d="M 76.121094 239.070312 L 80.289062 239.070312 L 80.289062 243.484375 L 76.121094 243.484375 Z M 76.121094 239.070312 " clip-rule="nonzero"/></clipPath><clipPath id="75a540ac49"><path d="M 77.398438 239.101562 C 80.25 242.925781 80.023438 243.300781 79.800781 243.375 C 79.574219 243.449219 78.675781 242.699219 78.75 242.476562 C 78.824219 242.25 79.726562 241.949219 79.949219 242.101562 C 80.175781 242.25 80.175781 243 80.023438 243.148438 C 79.875 243.375 79.351562 243.375 78.976562 243.226562 C 78.226562 242.925781 76.648438 240.976562 76.351562 240.226562 C 76.199219 239.851562 76.125 239.550781 76.273438 239.324219 C 76.425781 239.101562 77.398438 239.101562 77.398438 239.101562 " clip-rule="nonzero"/></clipPath><clipPath id="34cefb5405"><path d="M 76.320312 240 L 78.914062 240 L 78.914062 242 L 76.320312 242 Z M 76.320312 240 " clip-rule="nonzero"/></clipPath><clipPath id="d6f71d4a73"><path d="M 78 240 C 78.824219 241.125 77.925781 241.574219 77.699219 241.425781 C 77.476562 241.273438 77.476562 240.226562 77.699219 240.148438 C 77.925781 240 78.898438 240.523438 78.898438 240.824219 C 78.898438 241.125 78.074219 241.875 77.625 241.949219 C 77.25 242.023438 76.648438 241.800781 76.5 241.5 C 76.351562 241.199219 76.574219 240.300781 76.574219 240.300781 " clip-rule="nonzero"/></clipPath><clipPath id="0175c869dd"><path d="M 76.785156 239.539062 L 79.214844 239.539062 L 79.214844 242.328125 L 76.785156 242.328125 Z M 76.785156 239.539062 " clip-rule="nonzero"/></clipPath><clipPath id="88093c10a9"><path d="M 77.773438 241.800781 C 76.800781 240.074219 77.324219 239.550781 77.550781 239.550781 C 77.773438 239.550781 78.375 240.375 78.300781 240.601562 C 78.226562 240.824219 77.324219 241.050781 77.101562 240.898438 C 76.875 240.75 76.800781 240.226562 76.875 240 C 76.949219 239.773438 77.398438 239.550781 77.699219 239.625 C 78.148438 239.699219 79.199219 240.898438 79.199219 241.425781 C 79.199219 241.726562 78.898438 242.175781 78.675781 242.25 C 78.449219 242.324219 77.773438 241.800781 77.773438 241.800781 " clip-rule="nonzero"/></clipPath><clipPath id="bb7ef627d6"><path d="M 65.324219 139.804688 L 141.824219 139.804688 L 141.824219 190 L 65.324219 190 Z M 65.324219 139.804688 " clip-rule="nonzero"/></clipPath></defs><g clip-path="url(#dde654d035)"><path fill="#b4dbdc" d="M 243.425781 161.054688 C 243.707031 160.496094 243.417969 160.179688 243.316406 159.832031 C 242.78125 158.054688 243.851562 156.410156 245.714844 156.1875 C 246.085938 156.140625 246.472656 156.144531 246.847656 156.175781 C 250.550781 156.496094 254.117188 157.347656 257.441406 159.039062 C 258.511719 159.585938 258.703125 160.390625 258.011719 161.367188 C 257.300781 162.371094 256.492188 163.296875 255.398438 163.929688 C 255.03125 164.144531 254.675781 164.378906 254.347656 164.652344 C 254.039062 164.902344 253.570312 165.15625 253.960938 165.664062 C 254.347656 166.164062 254.984375 166.214844 255.429688 165.800781 C 255.742188 165.511719 255.996094 165.15625 256.324219 164.890625 C 257.140625 164.222656 257.785156 164.253906 258.585938 164.957031 C 258.65625 165.019531 258.734375 165.078125 258.785156 165.15625 C 259.75 166.671875 261.273438 166.421875 262.722656 166.394531 C 263.269531 166.382812 263.363281 166.085938 263.152344 165.644531 C 262.984375 165.304688 262.769531 164.988281 262.621094 164.644531 C 262.246094 163.761719 262.285156 163.476562 263.144531 163.042969 C 264.273438 162.46875 265.417969 161.882812 266.667969 161.585938 C 267.761719 161.328125 268.703125 161.582031 269.429688 162.53125 C 269.796875 163.007812 270.097656 163.570312 270.671875 163.859375 C 271.050781 163.75 271.105469 163.367188 271.316406 163.125 C 272.078125 162.226562 272.726562 162.167969 273.597656 162.933594 C 273.8125 163.121094 273.996094 163.339844 274.210938 163.527344 C 275.175781 164.363281 275.316406 164.386719 276.402344 163.710938 C 276.984375 163.351562 277.601562 163.164062 278.277344 163.15625 C 278.703125 163.152344 279.140625 163.089844 279.554688 163.164062 C 281.160156 163.449219 282.21875 162.832031 283.078125 161.453125 C 283.949219 160.054688 284.574219 160.078125 285.742188 161.3125 C 286.554688 162.171875 287.296875 163.089844 288.066406 163.988281 C 288.3125 164.273438 288.523438 164.59375 289 164.773438 C 289.742188 163.671875 290.640625 162.617188 291.21875 161.40625 C 291.71875 160.367188 292.355469 159.714844 293.449219 159.449219 C 293.71875 159.386719 294.007812 159.335938 294.210938 159.082031 C 294.226562 158.492188 293.738281 158.074219 293.628906 157.515625 C 293.535156 157.03125 293.628906 156.667969 294.210938 156.609375 C 295.257812 156.507812 296.28125 156.570312 297.269531 156.96875 C 297.980469 157.253906 298.210938 157.871094 298.300781 158.542969 C 298.453125 159.648438 298.296875 160.710938 297.738281 161.691406 C 297.457031 162.183594 297.140625 162.664062 296.882812 163.164062 C 296.203125 164.46875 296.402344 164.859375 297.835938 164.957031 C 298.359375 164.996094 298.875 165.039062 299.371094 165.191406 C 300.046875 165.402344 300.722656 165.621094 301.367188 165.914062 C 303.300781 166.792969 305.28125 166.90625 307.316406 166.363281 C 309.144531 165.875 310.960938 165.375 312.476562 164.148438 C 313.679688 163.167969 313.6875 163.183594 313.207031 161.695312 C 313.121094 161.425781 313.035156 161.15625 312.980469 160.878906 C 312.832031 160.078125 313.152344 159.613281 313.972656 159.488281 C 314.585938 159.390625 315.207031 159.429688 315.796875 159.640625 C 318.164062 160.484375 320.472656 161.449219 322.371094 163.167969 C 323.394531 164.09375 324.578125 164.785156 325.75 165.484375 C 326.863281 166.148438 327.425781 167.09375 327.589844 168.347656 C 327.742188 169.476562 327.996094 170.582031 328.546875 171.59375 C 328.773438 172.003906 329.011719 172.191406 329.566406 171.992188 C 330.785156 171.550781 331.371094 171.863281 331.910156 173.019531 C 332.09375 173.414062 332.125 173.839844 332.226562 174.25 C 332.460938 175.1875 332.773438 175.382812 333.898438 175.367188 C 334.9375 175.351562 335.039062 175.214844 335.332031 174.203125 C 335.574219 173.386719 335.429688 172.621094 335.273438 171.828125 C 335.015625 170.546875 335.195312 170.105469 336.363281 169.570312 C 336.832031 169.355469 336.945312 169.113281 337.054688 168.65625 C 337.265625 167.761719 337.746094 167.402344 338.695312 167.429688 C 339.730469 167.457031 340.761719 167.609375 341.796875 167.695312 C 342.550781 167.757812 342.835938 168.199219 342.894531 168.917969 C 342.980469 170.027344 343.003906 170.027344 344.109375 170.089844 C 344.347656 170.105469 344.585938 170.089844 344.816406 170.132812 C 345.972656 170.359375 346.535156 170.988281 346.578125 172.175781 C 346.621094 173.503906 346.4375 174.816406 346.125 176.101562 C 345.546875 178.457031 345.546875 180.78125 346.402344 183.070312 C 346.59375 183.582031 346.601562 184.054688 346.40625 184.582031 C 346.195312 185.144531 345.949219 185.730469 346.09375 186.390625 C 346.433594 186.644531 346.808594 186.429688 347.160156 186.417969 C 348.308594 186.386719 348.707031 186.792969 348.332031 187.828125 C 347.777344 189.375 347.371094 191.023438 345.933594 192.082031 C 345.445312 192.4375 345.402344 192.953125 345.539062 193.492188 C 345.710938 194.179688 345.910156 194.855469 346.09375 195.539062 C 346.597656 197.417969 346.460938 197.761719 344.828125 198.796875 C 343.011719 199.953125 342.199219 202.464844 343 204.480469 C 343.449219 205.621094 343.390625 206.230469 342.398438 206.960938 C 340.011719 208.710938 339.96875 211.25 339.933594 213.816406 C 339.929688 214.09375 340.085938 214.394531 340.019531 214.648438 C 339.554688 216.480469 340.132812 218.210938 340.519531 219.953125 C 340.671875 220.625 340.6875 221.21875 340.503906 221.890625 C 339.902344 224.128906 339.582031 226.417969 339.507812 228.742188 C 339.503906 228.886719 339.488281 229.03125 339.523438 229.167969 C 340.046875 231.1875 339.804688 233.140625 339.234375 235.136719 C 338.558594 237.507812 339.023438 239.925781 339.382812 242.304688 C 339.699219 244.386719 339.3125 246.339844 338.511719 248.246094 C 337.941406 249.601562 336.785156 250.183594 335.371094 250.566406 C 335.601562 251.246094 336.058594 251.792969 336.09375 252.511719 C 336.148438 253.660156 335.863281 254.6875 335.066406 255.507812 C 334.445312 256.144531 334.117188 256.902344 333.886719 257.726562 C 333.355469 259.644531 332.84375 261.554688 332.945312 263.582031 C 333.019531 265.140625 333.417969 266.542969 334.40625 267.78125 C 335.320312 268.933594 336.261719 270.054688 337.351562 271.042969 C 338.882812 272.425781 339.808594 274.109375 340.152344 276.160156 C 340.378906 277.511719 340.847656 278.808594 341.511719 280.019531 C 341.785156 280.519531 342.117188 280.964844 342.589844 281.3125 C 344.410156 282.664062 344.769531 284.6875 344.417969 286.644531 C 344.003906 288.929688 344.292969 290.921875 345.433594 292.886719 C 347.117188 295.804688 347.804688 299.039062 348.367188 302.3125 C 348.859375 305.207031 348.425781 308.054688 347.910156 310.890625 C 347.363281 313.90625 347.390625 316.90625 348.058594 319.886719 C 348.5625 322.128906 349.808594 323.714844 352.1875 324.238281 C 353.183594 324.453125 353.941406 324.222656 354.609375 323.492188 C 355.339844 322.699219 355.699219 321.730469 355.964844 320.71875 C 356.050781 320.398438 356.113281 320.070312 356.15625 319.746094 C 356.3125 318.652344 356.519531 317.585938 357.535156 316.917969 C 358.777344 316.101562 360.074219 315.453125 361.625 315.558594 C 361.957031 315.582031 362.300781 315.546875 362.46875 315.925781 C 362.65625 316.34375 362.46875 316.65625 362.167969 316.925781 C 361.335938 317.664062 360.75 318.570312 360.300781 319.570312 C 359.925781 320.40625 360.0625 321.105469 360.738281 321.742188 C 361.304688 322.269531 361.953125 322.636719 362.636719 322.960938 C 363.695312 323.46875 364.359375 324.207031 364.296875 325.5 C 364.210938 327.148438 365.238281 328.089844 366.597656 328.738281 C 366.976562 328.921875 367.402344 329.007812 367.796875 329.164062 C 369.152344 329.703125 369.691406 330.835938 368.824219 331.957031 C 367.703125 333.402344 367.96875 334.566406 368.894531 335.90625 C 369.585938 336.902344 369.425781 337.316406 368.382812 337.976562 C 368.0625 338.179688 367.722656 338.351562 367.402344 338.550781 C 366.164062 339.308594 366.011719 339.679688 366.347656 341.128906 C 366.367188 341.21875 366.421875 341.304688 366.4375 341.398438 C 366.546875 342.085938 366.820312 342.832031 366.292969 343.421875 C 365.875 343.890625 363.949219 343.925781 363.46875 343.414062 C 362.09375 341.9375 360.246094 341.964844 358.496094 341.714844 C 356.769531 341.464844 355.015625 341.460938 353.292969 341.148438 C 351.398438 340.804688 351.265625 340.652344 351.429688 338.773438 C 351.445312 338.59375 351.515625 338.398438 351.289062 338.183594 C 349.757812 338.621094 348.226562 339.21875 346.601562 339.496094 C 343.527344 340.023438 340.457031 340.457031 337.328125 340.605469 C 335.535156 340.691406 333.734375 340.613281 331.945312 340.820312 C 331.09375 340.917969 330.269531 340.773438 329.4375 340.511719 C 328.089844 340.078125 326.703125 339.792969 325.28125 339.6875 C 324.585938 339.640625 323.980469 339.738281 323.398438 340.125 C 322.425781 340.769531 321.363281 341.066406 320.179688 341.019531 C 318.980469 340.96875 317.851562 341.265625 316.804688 341.902344 C 314.597656 343.242188 312.667969 342.371094 310.628906 341.019531 C 310.066406 340.644531 310.128906 340.132812 310.605469 339.710938 C 311.132812 339.246094 311.710938 338.828125 312.265625 338.382812 C 313.085938 337.71875 313.355469 336.941406 313.085938 336.011719 C 312.847656 335.175781 312.394531 334.871094 311.515625 334.976562 C 310.53125 335.09375 309.5625 335.320312 308.625 335.65625 C 305.878906 336.632812 303.1875 336.46875 300.453125 335.5 C 296.527344 334.109375 292.757812 332.351562 289.035156 330.515625 C 282.167969 327.128906 275.359375 323.636719 268.519531 320.195312 C 266.980469 319.421875 265.3125 319.425781 263.660156 319.609375 C 262.527344 319.734375 261.402344 319.671875 260.273438 319.667969 C 258.65625 319.664062 257.34375 318.871094 256.449219 317.558594 C 255.46875 316.125 254.0625 315.4375 252.488281 315.007812 C 249.976562 314.320312 247.40625 313.972656 244.816406 313.746094 C 243.363281 313.617188 242.003906 313.382812 241.089844 311.875 C 240.308594 313.308594 239.152344 313.289062 237.875 313.042969 C 234.125 312.324219 230.644531 310.878906 227.222656 309.257812 C 225.132812 308.269531 223.070312 307.214844 220.96875 306.234375 C 217.300781 304.523438 213.414062 303.574219 209.410156 303.058594 C 208.1875 302.898438 207 302.546875 205.902344 301.980469 C 202.679688 300.324219 199.222656 299.371094 195.734375 298.515625 C 193.898438 298.066406 192.109375 297.460938 190.332031 296.824219 C 189.242188 296.433594 188.390625 295.859375 188.46875 294.496094 C 188.503906 293.789062 188.027344 293.367188 187.425781 293.113281 C 186.601562 292.761719 185.777344 292.394531 184.917969 292.144531 C 182.0625 291.324219 179.417969 289.882812 176.535156 289.214844 C 173.253906 288.453125 170.085938 287.40625 166.933594 286.257812 C 166.359375 286.046875 165.808594 285.765625 165.230469 285.554688 C 163.746094 284.996094 162.601562 284.015625 161.933594 282.597656 C 161.113281 280.863281 159.863281 279.605469 158.238281 278.617188 C 156.421875 277.511719 155.121094 275.894531 154.085938 274.050781 C 153.046875 272.195312 152 270.34375 151.164062 268.378906 C 151.070312 268.164062 150.984375 267.84375 150.816406 267.78125 C 149.566406 267.308594 149.746094 266.199219 149.558594 265.210938 C 149.28125 263.761719 148.464844 262.5625 147.292969 261.710938 C 145.289062 260.253906 144.691406 258.046875 144.082031 255.882812 C 143.632812 254.277344 145.21875 251.972656 147.007812 251.332031 C 148.519531 250.785156 150.066406 250.796875 151.613281 251.210938 C 152.109375 251.347656 152.589844 251.554688 153.089844 251.691406 C 153.9375 251.917969 154.316406 251.75 154.695312 250.96875 C 154.902344 250.546875 155.085938 250.105469 155.214844 249.652344 C 155.71875 247.917969 155.234375 247.207031 153.289062 246.988281 C 154.042969 245.820312 155.023438 244.722656 154.097656 243.136719 C 154.867188 243.429688 155.296875 243.867188 155.75 244.269531 C 156.433594 244.871094 157.191406 245.347656 158.078125 245.574219 C 159.386719 245.90625 160.175781 245.449219 160.511719 244.144531 C 160.660156 243.554688 160.722656 242.9375 160.828125 242.3125 C 161.257812 242.164062 161.46875 242.570312 161.769531 242.746094 C 162.789062 243.339844 163.777344 243.992188 164.816406 244.550781 C 166.402344 245.410156 168.074219 245.722656 169.867188 245.214844 C 170.585938 245.011719 171.355469 244.964844 172.097656 244.851562 C 172.617188 244.773438 173.105469 244.597656 173.558594 244.335938 C 174.304688 243.902344 174.460938 243.507812 174.175781 242.6875 C 173.910156 241.925781 173.558594 241.203125 173.289062 240.445312 C 173.074219 239.851562 173.234375 239.640625 173.875 239.71875 C 175.292969 239.878906 176.640625 240.320312 177.933594 240.917969 C 179.855469 241.8125 181.878906 241.8125 183.914062 241.617188 C 185.597656 241.460938 186.925781 240.609375 188.027344 239.339844 C 189.339844 237.835938 190.214844 237.640625 191.960938 238.417969 C 193.941406 239.296875 194.671875 238.808594 194.71875 236.601562 C 194.738281 235.785156 194.679688 234.980469 194.417969 234.222656 C 194.117188 233.332031 194.253906 232.554688 194.734375 231.792969 C 194.863281 231.59375 194.957031 231.375 195.089844 231.179688 C 195.433594 230.699219 195.542969 229.789062 196.199219 229.859375 C 197.066406 229.945312 197.890625 230.417969 198.503906 231.128906 C 198.777344 231.441406 198.683594 231.730469 198.503906 232.039062 C 198.171875 232.609375 197.800781 233.164062 197.53125 233.761719 C 196.675781 235.675781 196.992188 237.609375 198.3125 238.863281 C 198.660156 239.191406 199.007812 239.574219 199.546875 239.316406 C 200.027344 239.082031 200.433594 238.730469 200.457031 238.140625 C 200.488281 237.480469 200.523438 236.816406 200.472656 236.152344 C 200.40625 235.292969 200.722656 234.675781 201.476562 234.292969 C 201.96875 234.042969 202.367188 233.613281 202.898438 233.476562 C 203.015625 233.574219 203.113281 233.621094 203.152344 233.699219 C 203.667969 234.703125 204.175781 235.707031 204.710938 236.757812 C 204 237.296875 203.324219 237.820312 202.890625 238.566406 C 202.296875 239.597656 202.574219 240.144531 203.738281 240.269531 C 204.964844 240.402344 206.15625 240.648438 207.320312 241.070312 C 207.890625 241.277344 208.496094 241.445312 209.109375 241.152344 C 209.636719 240.90625 209.832031 240.566406 209.503906 240.027344 C 209.457031 239.945312 209.417969 239.851562 209.347656 239.792969 C 208.316406 238.929688 208.328125 237.738281 208.34375 236.566406 C 208.351562 235.839844 208.15625 235.167969 207.925781 234.496094 C 207.707031 233.863281 207.691406 233.332031 208.386719 232.914062 C 209.460938 232.269531 209.785156 231.191406 209.855469 230.003906 C 209.882812 229.484375 209.964844 228.972656 209.988281 228.453125 C 210.019531 227.789062 210.421875 227.667969 210.945312 227.792969 C 211.632812 227.957031 212.300781 228.207031 212.988281 228.363281 C 214.742188 228.757812 216.0625 227.347656 215.585938 225.601562 C 215.511719 225.328125 215.425781 225.042969 215.28125 224.8125 C 214.460938 223.488281 214.71875 222.195312 215.359375 220.910156 C 215.570312 220.488281 215.804688 220.078125 216.039062 219.664062 C 217.351562 217.355469 217.964844 214.855469 217.980469 212.207031 C 217.992188 210.457031 218.1875 208.71875 218.453125 206.996094 C 218.660156 205.640625 218.347656 204.984375 217.136719 204.34375 C 216.105469 203.804688 214.976562 203.683594 213.84375 203.617188 C 213.363281 203.585938 212.886719 203.59375 212.53125 203.210938 C 211.59375 202.199219 210.378906 201.671875 209.089844 201.339844 C 207.714844 200.980469 207.128906 200.105469 206.882812 198.742188 C 206.242188 195.15625 206.71875 191.789062 208.519531 188.617188 C 209.128906 187.546875 209.777344 186.5 210.335938 185.40625 C 211.03125 184.03125 212.160156 183.285156 213.59375 182.890625 C 216.246094 182.160156 218.953125 181.792969 221.695312 181.609375 C 223.441406 181.492188 225.167969 181.234375 226.878906 180.863281 C 228.171875 180.582031 228.457031 180.304688 228.554688 179.011719 C 228.59375 178.527344 228.78125 178.351562 229.191406 178.242188 C 230.410156 177.921875 231.5 177.414062 232.109375 176.195312 C 232.332031 175.753906 232.8125 175.777344 233.21875 175.6875 C 234.421875 175.429688 235.632812 175.21875 236.816406 174.910156 C 238.414062 174.5 238.554688 174.167969 238.828125 172.488281 C 239.199219 170.207031 239.25 167.875 239.859375 165.640625 C 240.246094 164.21875 239.929688 162.960938 239.300781 161.695312 C 239.097656 161.289062 238.480469 160.878906 238.96875 160.339844 C 239.496094 159.757812 240.203125 159.65625 240.925781 159.914062 C 241.414062 160.085938 241.871094 160.34375 242.34375 160.5625 C 242.6875 160.726562 243.03125 160.875 243.425781 161.054688 Z M 243.425781 161.054688 " fill-opacity="1" fill-rule="nonzero"/></g><g clip-path="url(#9106573102)"><path fill="#b4dbdc" d="M 11.199219 205.4375 C 11.59375 205.128906 11.808594 204.796875 11.886719 204.34375 C 12.34375 201.746094 12.820312 201.304688 15.359375 201.152344 C 15.097656 199.945312 15.472656 198.855469 16.011719 197.78125 C 16.554688 196.703125 16.59375 195.609375 15.917969 194.542969 C 15.421875 193.757812 15.507812 192.914062 15.761719 192.078125 C 16.257812 190.449219 17.261719 189.132812 18.402344 187.925781 C 19.054688 187.230469 19.53125 186.609375 19.125 185.546875 C 18.777344 184.644531 19.269531 183.898438 20.007812 183.34375 C 21.011719 182.582031 22.144531 182.191406 23.527344 182.417969 C 23.367188 181.597656 23.230469 180.964844 23.117188 180.324219 C 22.882812 179.058594 22.828125 177.789062 23.175781 176.527344 C 23.644531 174.835938 24.058594 173.136719 23.890625 171.363281 C 23.8125 170.578125 24.207031 170.257812 24.925781 170.152344 C 26.535156 169.914062 27.992188 169.222656 29.484375 168.640625 C 30.949219 168.070312 32.03125 167.089844 32.800781 165.699219 C 34.964844 161.777344 38 158.515625 40.894531 155.152344 C 41.574219 154.363281 42.414062 153.953125 43.46875 153.84375 C 44.5 153.738281 45.511719 153.46875 46.535156 153.28125 C 46.988281 153.199219 47.199219 152.957031 47.089844 152.488281 C 47.078125 152.441406 47.089844 152.390625 47.078125 152.34375 C 46.433594 150.359375 47.304688 148.773438 48.382812 147.21875 C 49.109375 146.167969 49.753906 145.039062 50.660156 144.152344 C 52.300781 142.558594 53.726562 140.839844 54.867188 138.84375 C 55.414062 137.898438 55.800781 136.980469 55.675781 135.914062 C 55.46875 134.167969 55.589844 132.441406 55.632812 130.695312 C 55.675781 129.097656 55.660156 127.507812 55.824219 125.910156 C 55.890625 125.285156 55.609375 124.617188 55.441406 123.980469 C 55.261719 123.296875 55.011719 122.628906 54.835938 121.941406 C 54.550781 120.8125 54.707031 119.804688 55.613281 118.957031 C 56.164062 118.441406 56.625 117.835938 57.121094 117.265625 C 57.535156 116.789062 57.589844 116.277344 57.296875 115.707031 C 56.101562 113.371094 54.667969 111.21875 52.582031 109.574219 C 52.023438 109.132812 51.449219 108.710938 50.925781 108.238281 C 50.027344 107.429688 49.367188 106.460938 49.148438 105.242188 C 48.960938 104.179688 49.257812 103.667969 50.265625 103.273438 C 50.445312 103.207031 50.621094 103.136719 50.804688 103.085938 C 51.871094 102.78125 52.601562 102.121094 53.078125 101.109375 C 53.71875 99.734375 54.472656 98.421875 55.617188 97.382812 C 56.832031 96.285156 58.199219 95.671875 59.886719 95.933594 C 62.148438 96.277344 64.332031 95.957031 66.3125 94.789062 C 67.589844 94.035156 68.6875 93.945312 69.984375 94.800781 C 72.289062 96.335938 74.859375 96.457031 77.484375 95.792969 C 79.175781 95.363281 80.855469 94.871094 82.542969 94.40625 C 84.59375 93.839844 84.867188 93.921875 86.105469 95.65625 C 86.703125 96.492188 87.304688 97.230469 88.503906 97.078125 C 89.054688 97.011719 89.492188 96.808594 89.902344 96.472656 C 90.339844 96.117188 90.769531 95.742188 91.226562 95.40625 C 91.992188 94.84375 92.8125 94.765625 93.597656 95.339844 C 94.890625 96.273438 96.304688 96.566406 97.882812 96.460938 C 99.464844 96.355469 100.960938 96.53125 102.113281 97.917969 C 102.769531 98.703125 103.394531 98.640625 104.238281 97.96875 C 105.128906 97.257812 105.925781 96.425781 106.433594 95.398438 C 107.367188 93.511719 109.035156 93.167969 110.855469 93.320312 C 112.273438 93.441406 113.582031 94.066406 114.84375 94.71875 C 115.644531 95.128906 115.917969 95.789062 115.738281 96.753906 C 115.574219 97.636719 115.34375 98.503906 115.117188 99.371094 C 114.910156 100.148438 115.082031 100.703125 115.800781 101.179688 C 116.78125 101.828125 116.84375 102.113281 116.4375 103.199219 C 116.125 104.039062 115.734375 104.851562 115.367188 105.667969 C 114.898438 106.707031 114.726562 107.722656 115.351562 108.785156 C 115.769531 109.492188 115.6875 110.234375 115.292969 110.949219 C 114.96875 111.527344 114.671875 112.117188 114.359375 112.699219 C 113.964844 113.429688 114.046875 114.089844 114.714844 114.589844 C 115.734375 115.347656 116.136719 116.417969 116.402344 117.605469 C 116.625 118.617188 116.96875 119.601562 117.265625 120.597656 C 117.515625 121.445312 117.394531 121.71875 116.574219 121.898438 C 115.875 122.042969 115.171875 121.984375 114.460938 121.835938 C 112.707031 121.476562 110.988281 121.90625 109.277344 122.199219 C 108.574219 122.316406 107.988281 122.792969 107.449219 123.25 C 106.15625 124.34375 104.636719 124.761719 102.984375 124.789062 C 100.933594 124.816406 99.992188 125.628906 99.691406 127.667969 C 99.453125 129.277344 99.453125 129.277344 97.886719 128.925781 C 97.042969 128.734375 96.574219 128.976562 96.101562 129.914062 C 95.585938 130.941406 95.402344 132.074219 95.199219 133.179688 C 95.003906 134.242188 94.65625 135.175781 93.875 135.925781 C 93.25 136.527344 93.058594 137.238281 93.136719 138.113281 C 93.25 139.359375 93.546875 140.527344 94.09375 141.644531 C 95.386719 144.285156 95.734375 147.144531 96 150.019531 C 96.054688 150.59375 95.902344 151.140625 95.699219 151.679688 C 95.109375 153.226562 95.417969 154.652344 96.320312 155.984375 C 96.824219 156.726562 97.378906 157.425781 98.128906 157.957031 C 99.585938 158.992188 100.371094 160.449219 100.839844 162.152344 C 101.0625 162.976562 101 163.617188 100.328125 164.179688 C 99.578125 164.800781 99.203125 165.554688 99.011719 166.574219 C 98.804688 167.691406 99.027344 168.609375 99.71875 169.308594 C 100.871094 170.476562 100.925781 171.71875 100.5625 173.207031 C 100.171875 174.816406 99.925781 176.421875 98.722656 177.71875 C 97.917969 178.589844 97.050781 179.074219 95.867188 178.894531 C 95.585938 178.855469 95.300781 178.792969 95.019531 178.796875 C 94.113281 178.804688 93.6875 179.421875 94.140625 180.195312 C 94.886719 181.457031 95.65625 182.734375 96.933594 183.546875 C 99.722656 185.316406 102.144531 187.632812 105.183594 189.035156 C 106.1875 189.5 106.917969 190.34375 107.582031 191.207031 C 109.097656 193.164062 110.871094 194.839844 112.800781 196.386719 C 116.183594 199.101562 117.828125 202.757812 118.460938 206.988281 C 118.738281 208.8125 118.464844 210.558594 118.15625 212.316406 C 117.800781 214.363281 117.382812 216.398438 116.726562 218.375 C 116.621094 218.6875 116.53125 219.011719 116.371094 219.296875 C 115.980469 219.988281 115.667969 220.066406 114.996094 219.675781 C 114.792969 219.558594 114.597656 219.421875 114.417969 219.265625 C 112.820312 217.886719 110.921875 217.988281 109.027344 218.203125 C 107.882812 218.335938 107.210938 219.179688 106.78125 220.164062 C 106.003906 221.9375 105.28125 223.738281 104.550781 225.535156 C 102.289062 231.132812 98.738281 235.808594 94.207031 239.730469 C 92.136719 241.519531 89.84375 243.042969 87.542969 244.542969 C 86.667969 245.113281 85.988281 245.054688 85.136719 244.445312 C 77.488281 238.984375 69.105469 234.835938 60.699219 230.707031 C 54.507812 227.667969 48.027344 225.242188 41.925781 222.03125 C 35.34375 218.566406 28.503906 215.742188 21.578125 213.082031 C 19.546875 212.304688 17.460938 211.695312 15.34375 211.203125 C 14.28125 210.957031 13.230469 210.789062 12.128906 210.871094 C 10.683594 210.976562 10.203125 210.546875 10.21875 209.101562 C 10.226562 208.242188 9.867188 207.792969 9.191406 207.433594 C 8.398438 207.015625 7.609375 206.582031 6.839844 206.125 C 6.480469 205.90625 6.121094 205.648438 5.835938 205.339844 C 5.253906 204.710938 5.394531 204.328125 6.25 204.054688 C 7.34375 203.710938 8.417969 203.4375 9.554688 203.957031 C 10.277344 204.277344 10.710938 204.878906 11.199219 205.4375 Z M 11.199219 205.4375 " fill-opacity="1" fill-rule="nonzero"/></g><g clip-path="url(#0c8231c909)"><path fill="#b4dbdc" d="M 176.109375 159.246094 C 174.550781 158.257812 172.785156 157.851562 171.527344 156.550781 C 171.199219 156.210938 170.777344 155.972656 170.585938 155.511719 C 170.222656 154.652344 169.503906 154.394531 168.644531 154.347656 C 167.847656 154.304688 167.050781 154.355469 166.242188 154.230469 C 165.160156 154.0625 164.261719 153.609375 163.519531 152.839844 C 162.597656 151.894531 161.777344 150.808594 160.242188 150.886719 C 160.089844 150.894531 159.886719 150.738281 159.78125 150.601562 C 159.113281 149.730469 158.121094 149.542969 157.144531 149.390625 C 156.347656 149.265625 155.558594 149.136719 154.789062 148.910156 C 154.183594 148.734375 153.882812 148.96875 153.367188 149.363281 C 151.371094 150.886719 151.246094 153.144531 150.722656 155.261719 C 150.621094 155.675781 150.539062 156.09375 150.460938 156.507812 C 150.183594 157.9375 149.5 159.03125 148.117188 159.671875 C 146.820312 160.273438 145.910156 161.296875 145.476562 162.671875 C 144.933594 164.390625 143.785156 165.320312 142.019531 165.613281 C 140.953125 165.789062 139.890625 166.058594 138.859375 166.382812 C 137.328125 166.867188 136.898438 167.585938 137.183594 169.171875 C 137.355469 170.128906 137.675781 171.058594 137.933594 172.015625 C 137.433594 172.191406 137.039062 171.984375 136.636719 171.890625 C 136.027344 171.746094 135.429688 171.730469 134.828125 171.949219 C 134.28125 172.148438 133.945312 172.480469 133.957031 173.09375 C 133.960938 173.421875 133.976562 173.757812 133.957031 174.085938 C 133.90625 175.101562 133.597656 175.488281 132.578125 175.449219 C 131.5 175.410156 130.683594 175.867188 129.867188 176.476562 C 128.96875 177.152344 128.203125 178 127.167969 178.589844 C 126.660156 178.105469 126.636719 177.476562 126.597656 176.890625 C 126.492188 175.398438 126.070312 174.042969 125.285156 172.753906 C 124.527344 171.507812 123.890625 170.1875 123.773438 168.667969 C 123.683594 167.480469 123.882812 166.429688 124.664062 165.492188 C 125.640625 164.320312 126.417969 163.03125 126.792969 161.527344 C 127.367188 159.222656 126.363281 157.25 124.171875 156.367188 C 123.152344 155.957031 122.234375 156 121.480469 156.90625 C 120.796875 157.722656 119.902344 158.242188 118.957031 158.691406 C 116.898438 159.65625 114.898438 160.714844 113.171875 162.226562 C 112.710938 162.628906 112.320312 162.800781 111.703125 162.3125 C 110.761719 161.574219 110.003906 161.730469 109.253906 162.648438 C 108.957031 163.007812 108.710938 163.429688 108.523438 163.859375 C 108.175781 164.660156 107.574219 165.171875 106.765625 165.382812 C 104.488281 165.96875 102.566406 167.066406 101.269531 169.085938 C 99.648438 167.804688 99.542969 166.308594 101.003906 165.042969 C 102.054688 164.132812 102.152344 163.003906 101.882812 161.8125 C 101.472656 160.023438 100.667969 158.441406 99.164062 157.285156 C 98.679688 156.910156 98.234375 156.472656 97.824219 156.019531 C 96.65625 154.746094 96.121094 153.34375 96.804688 151.609375 C 97.441406 149.988281 96.972656 148.324219 96.71875 146.707031 C 96.382812 144.613281 95.941406 142.527344 94.890625 140.632812 C 94.519531 139.972656 94.390625 139.214844 94.269531 138.460938 C 94.132812 137.613281 94.226562 136.898438 94.933594 136.289062 C 95.765625 135.570312 95.992188 134.535156 96.21875 133.511719 C 96.421875 132.589844 96.632812 131.667969 96.882812 130.757812 C 97.015625 130.28125 97.207031 129.957031 97.890625 130.175781 C 100.316406 130.957031 100.445312 129.929688 100.734375 128.183594 C 100.785156 127.859375 100.785156 127.519531 100.875 127.207031 C 101.179688 126.167969 101.519531 125.890625 102.605469 125.941406 C 104.632812 126.03125 106.472656 125.5 107.980469 124.160156 C 109.285156 123 110.882812 123.164062 112.398438 122.9375 C 113.140625 122.828125 113.902344 122.878906 114.648438 123.09375 C 115.496094 123.332031 116.34375 123.226562 117.152344 122.902344 C 117.785156 122.648438 118.363281 122.234375 118.402344 121.507812 C 118.433594 120.894531 118.726562 120.425781 118.96875 119.925781 C 121.75 114.28125 124.605469 108.683594 127.96875 103.351562 C 129.207031 101.386719 130.515625 99.480469 132.355469 98.007812 C 132.902344 97.570312 133.429688 97.203125 134.121094 96.949219 C 135.402344 96.480469 136.566406 95.730469 137.699219 94.949219 C 141.292969 92.476562 144.664062 89.746094 147.914062 86.851562 C 149.808594 85.167969 151.984375 83.929688 154.363281 83.078125 C 157.808594 81.84375 160.742188 79.84375 163.386719 77.347656 C 166.207031 74.683594 168.972656 71.972656 171.855469 69.378906 C 174.921875 66.625 177.550781 63.453125 179.957031 60.105469 C 181.171875 58.417969 182.480469 56.808594 183.9375 55.316406 C 184.984375 54.246094 186.167969 53.40625 187.546875 52.871094 C 189.371094 52.160156 191.007812 51.140625 192.589844 50.015625 C 193.015625 49.714844 193.445312 49.417969 193.898438 49.164062 C 195.226562 48.425781 195.578125 48.46875 196.472656 49.742188 C 199.378906 53.890625 201.625 58.324219 202.457031 63.390625 C 202.875 65.957031 203.28125 68.539062 203.1875 71.132812 C 203.066406 74.390625 203.734375 77.453125 205.148438 80.332031 C 206.667969 83.429688 207.101562 86.707031 207.203125 90.089844 C 207.421875 97.382812 208.371094 104.554688 210.453125 111.589844 C 212.347656 117.972656 213.925781 124.449219 215.605469 130.894531 C 215.972656 132.3125 216.109375 133.773438 216.097656 135.25 C 216.074219 138.753906 216.089844 142.257812 216.089844 145.765625 C 216.089844 146.09375 216.074219 146.429688 216.097656 146.757812 C 216.1875 147.957031 216.707031 148.433594 217.910156 148.417969 C 218.855469 148.40625 219.804688 148.316406 220.742188 148.398438 C 223.386719 148.640625 224.003906 149.605469 224.328125 151.332031 C 224.554688 152.550781 225.375 153.320312 226.414062 153.863281 C 227.25 154.304688 228.117188 154.6875 228.980469 155.070312 C 230.347656 155.675781 231.292969 156.667969 231.863281 158.046875 C 232.136719 158.699219 232.441406 159.34375 232.777344 159.96875 C 233.507812 161.332031 234.023438 161.585938 235.519531 161.375 C 235.894531 161.320312 236.289062 161.316406 236.632812 161.183594 C 237.464844 160.878906 237.777344 161.3125 238.144531 161.972656 C 238.863281 163.269531 239.125 164.546875 238.726562 166.039062 C 238.1875 168.039062 238.09375 170.132812 237.863281 172.199219 C 237.71875 173.46875 237.75 173.519531 236.519531 173.824219 C 235.375 174.105469 234.21875 174.347656 233.054688 174.546875 C 232.214844 174.695312 231.582031 175.035156 231.101562 175.785156 C 230.273438 177.082031 228.175781 177.683594 226.757812 177.125 C 225.59375 176.667969 224.585938 176.128906 224.144531 174.765625 C 223.796875 173.703125 222.800781 173.222656 221.683594 173.125 C 220.546875 173.027344 219.410156 173.101562 218.300781 173.332031 C 216.691406 173.671875 215.214844 173.617188 213.976562 172.339844 C 213.726562 172.078125 213.363281 171.90625 213.019531 171.75 C 211.730469 171.171875 210.832031 171.585938 210.371094 172.925781 C 209.964844 174.136719 209.964844 174.132812 208.703125 174.234375 C 207.605469 174.320312 206.535156 174.535156 205.664062 175.257812 C 205.050781 175.765625 204.558594 175.601562 204.027344 175.167969 C 203.476562 174.714844 202.921875 174.277344 202.347656 173.863281 C 201.523438 173.269531 200.59375 172.949219 199.578125 172.871094 C 198.511719 172.789062 197.585938 173.078125 197.027344 174.03125 C 196.523438 174.890625 195.792969 175.265625 194.855469 175.425781 C 191.519531 176.003906 190.75 176.546875 188.894531 179.519531 C 188.246094 178.402344 188.25 177.171875 187.988281 176.015625 C 187.917969 175.695312 187.9375 175.355469 187.886719 175.03125 C 187.703125 173.921875 187.285156 173.339844 186.179688 173.273438 C 185.253906 173.214844 185.082031 172.683594 184.949219 172.027344 C 184.863281 171.621094 184.824219 171.175781 184.875 170.761719 C 185.128906 168.832031 185.039062 166.910156 184.890625 164.972656 C 184.761719 163.230469 184.855469 161.472656 184.867188 159.71875 C 184.871094 159.039062 184.75 158.398438 184.378906 157.824219 C 183.644531 156.695312 182.394531 156.515625 181.4375 157.457031 C 181.058594 157.828125 180.777344 157.992188 180.222656 157.773438 C 178.109375 156.9375 177.472656 157.183594 176.109375 159.246094 Z M 176.109375 159.246094 " fill-opacity="1" fill-rule="nonzero"/></g><path fill="#b4dbdc" d="M 95.417969 179.972656 C 98.050781 180.621094 99.1875 178.910156 100.382812 177.308594 C 100.667969 176.925781 100.894531 176.496094 100.980469 176.03125 C 101.324219 174.230469 101.964844 172.476562 101.824219 170.601562 C 101.796875 170.1875 102.007812 169.882812 102.21875 169.566406 C 103.148438 168.179688 104.375 167.164062 105.992188 166.734375 C 107.722656 166.269531 109.101562 165.46875 109.847656 163.722656 C 110.21875 162.859375 110.363281 162.871094 111.1875 163.453125 C 111.871094 163.9375 112.503906 163.886719 113.164062 163.484375 C 113.402344 163.339844 113.644531 163.179688 113.859375 163 C 115.574219 161.5625 117.515625 160.488281 119.527344 159.539062 C 120.558594 159.054688 121.578125 158.550781 122.292969 157.609375 C 122.601562 157.203125 122.976562 157.179688 123.425781 157.320312 C 125.226562 157.894531 126.140625 159.476562 125.683594 161.324219 C 125.433594 162.339844 125.066406 163.359375 124.355469 164.117188 C 121.855469 166.78125 122.253906 169.65625 123.816406 172.496094 C 124.726562 174.144531 125.433594 175.789062 125.519531 177.671875 C 125.523438 177.714844 125.535156 177.765625 125.542969 177.808594 C 126.050781 180.144531 126.78125 180.390625 128.636719 178.863281 C 129.109375 178.472656 129.589844 178.085938 130.050781 177.683594 C 130.886719 176.945312 131.738281 176.425781 132.957031 176.457031 C 134.300781 176.488281 135.082031 175.460938 135.128906 173.996094 C 135.164062 172.90625 135.300781 172.777344 136.335938 172.972656 C 136.796875 173.058594 137.242188 173.246094 137.703125 173.316406 C 138.710938 173.472656 139.257812 172.953125 139.125 171.9375 C 139.058594 171.433594 138.832031 170.945312 138.664062 170.457031 C 137.8125 167.960938 138.074219 167.5 140.59375 166.96875 C 141.472656 166.785156 142.34375 166.574219 143.214844 166.363281 C 144.773438 165.988281 145.792969 164.960938 146.300781 163.5 C 146.8125 162.027344 147.699219 161 149.085938 160.285156 C 150.519531 159.542969 151.253906 158.234375 151.574219 156.667969 C 151.863281 155.230469 152.175781 153.800781 152.507812 152.375 C 152.621094 151.890625 152.679688 151.332031 153.371094 151.070312 C 153.652344 151.644531 153.578125 152.253906 153.480469 152.816406 C 152.777344 156.960938 152.070312 161.105469 150.53125 165.054688 C 150.222656 165.84375 149.996094 166.667969 149.9375 167.527344 C 149.851562 168.742188 150.273438 169.722656 151.472656 170.097656 C 152.492188 170.417969 152.832031 171 152.847656 172.03125 C 152.863281 172.964844 153.109375 173.886719 153.597656 174.730469 C 154.09375 175.59375 154.75 176.113281 155.761719 176.046875 C 157.269531 175.945312 158.78125 175.894531 160.292969 175.953125 C 160.796875 175.972656 161.175781 175.695312 161.582031 175.4375 C 162.410156 174.910156 162.941406 174.996094 163.527344 175.777344 C 163.890625 176.265625 164.195312 176.8125 164.433594 177.375 C 164.8125 178.265625 165.375 178.773438 166.390625 178.609375 C 166.433594 178.601562 166.484375 178.609375 166.53125 178.609375 C 168.78125 178.625 168.78125 178.625 169.371094 180.859375 C 169.539062 181.496094 169.667969 182.15625 169.910156 182.761719 C 170.210938 183.511719 170.589844 183.621094 171.234375 183.1875 C 171.9375 182.710938 172.589844 182.15625 173.128906 181.488281 C 173.789062 180.671875 173.828125 179.773438 173.417969 178.828125 C 173.109375 178.109375 172.589844 177.484375 172.417969 176.621094 C 173.339844 176.507812 173.792969 177.0625 174.222656 177.617188 C 174.566406 178.070312 174.863281 178.5625 175.332031 178.902344 C 175.921875 179.339844 176.480469 179.296875 176.726562 178.628906 C 177.421875 176.765625 178.03125 174.871094 176.84375 172.933594 C 175.980469 171.523438 175.675781 169.972656 175.921875 168.328125 C 176.144531 166.792969 176.1875 165.363281 174.945312 164.113281 C 173.6875 162.851562 173.820312 161.320312 174.5 159.800781 C 174.949219 159.683594 175.121094 160.023438 175.363281 160.21875 C 176.289062 160.957031 176.746094 160.84375 177.285156 159.738281 C 177.347656 159.609375 177.390625 159.476562 177.457031 159.351562 C 177.96875 158.390625 178.550781 158.171875 179.550781 158.570312 C 179.636719 158.601562 179.71875 158.65625 179.808594 158.695312 C 181.144531 159.289062 181.148438 159.289062 182.246094 158.246094 C 182.738281 157.777344 182.988281 157.800781 183.332031 158.367188 C 183.613281 158.824219 183.699219 159.335938 183.703125 159.863281 C 183.714844 160.621094 183.722656 161.378906 183.707031 162.136719 C 183.652344 165.15625 183.996094 168.171875 183.714844 171.191406 C 183.664062 171.757812 183.746094 172.316406 183.914062 172.871094 C 184.148438 173.625 184.617188 174.058594 185.390625 174.226562 C 186.601562 174.496094 186.566406 174.519531 186.75 175.769531 C 186.914062 176.890625 187.148438 177.996094 187.375 179.109375 C 187.449219 179.476562 187.566406 179.847656 187.722656 180.183594 C 187.957031 180.6875 188.132812 181.328125 188.851562 181.289062 C 189.507812 181.257812 189.753906 180.738281 189.984375 180.179688 C 190.859375 178.042969 192.363281 176.703125 194.75 176.496094 C 196.136719 176.378906 197.316406 175.882812 198.03125 174.59375 C 198.316406 174.082031 198.804688 173.960938 199.363281 173.945312 C 200.316406 173.917969 201.109375 174.304688 201.84375 174.847656 C 202.488281 175.324219 203.105469 175.84375 203.75 176.316406 C 204.472656 176.847656 205.292969 176.949219 205.976562 176.363281 C 207.070312 175.425781 208.375 175.332031 209.6875 175.222656 C 211.222656 175.097656 211.222656 175.105469 211.421875 173.628906 C 211.578125 172.515625 211.980469 172.316406 212.914062 172.898438 C 213.035156 172.972656 213.148438 173.0625 213.25 173.15625 C 214.6875 174.453125 216.292969 174.957031 218.222656 174.402344 C 219.027344 174.175781 219.898438 174.164062 220.75 174.105469 C 222.042969 174.007812 222.675781 174.367188 223.15625 175.578125 C 223.492188 176.425781 224.082031 177 224.855469 177.398438 C 225.484375 177.722656 226.136719 178.011719 226.800781 178.257812 C 227.234375 178.414062 227.386719 178.695312 227.398438 179.105469 C 227.414062 179.636719 227.003906 179.671875 226.632812 179.753906 C 224.363281 180.238281 222.058594 180.410156 219.753906 180.617188 C 217.351562 180.832031 214.984375 181.253906 212.6875 182.019531 C 211.660156 182.359375 210.75 182.917969 210.179688 183.792969 C 208.246094 186.765625 206.332031 189.753906 205.683594 193.347656 C 205.289062 195.53125 205.511719 197.671875 205.949219 199.816406 C 206.222656 201.164062 207.082031 201.957031 208.351562 202.347656 C 209.671875 202.753906 210.941406 203.21875 211.914062 204.28125 C 212.273438 204.671875 212.804688 204.746094 213.351562 204.773438 C 214.386719 204.828125 215.417969 204.957031 216.40625 205.320312 C 217.046875 205.550781 217.496094 205.9375 217.375 206.679688 C 216.96875 209.246094 216.945312 211.847656 216.707031 214.429688 C 216.558594 216.050781 215.960938 217.542969 215.175781 218.960938 C 214.8125 219.625 214.460938 220.296875 214.152344 220.988281 C 213.546875 222.347656 213.476562 223.726562 214.117188 225.109375 C 214.253906 225.410156 214.4375 225.699219 214.511719 226.015625 C 214.714844 226.894531 214.246094 227.398438 213.359375 227.234375 C 212.757812 227.125 212.175781 226.902344 211.585938 226.746094 C 209.703125 226.242188 208.917969 226.832031 208.875 228.800781 C 208.859375 229.417969 208.839844 230.023438 208.675781 230.625 C 208.503906 231.238281 208.273438 231.765625 207.679688 232.097656 C 206.769531 232.613281 206.457031 233.496094 206.738281 234.410156 C 207.125 235.660156 207.195312 236.90625 207.183594 238.1875 C 207.179688 238.691406 207.351562 239.195312 207.46875 239.816406 C 206.292969 239.550781 205.1875 239.1875 203.96875 239.09375 C 204.046875 238.332031 204.65625 238.140625 205.152344 237.84375 C 206.132812 237.257812 206.191406 237.054688 205.640625 236.035156 C 205.03125 234.914062 204.40625 233.804688 203.957031 232.597656 C 203.6875 231.867188 203.304688 231.78125 202.652344 232.199219 C 202.09375 232.558594 201.589844 233.007812 201 233.292969 C 199.71875 233.921875 199.304688 234.984375 199.304688 236.308594 C 199.304688 236.851562 199.304688 237.398438 199.304688 238.046875 C 198.097656 236.957031 197.835938 235.828125 198.339844 234.445312 C 198.585938 233.765625 199.011719 233.195312 199.355469 232.574219 C 200.046875 231.316406 199.90625 230.671875 198.753906 229.789062 C 198.144531 229.324219 197.445312 229.035156 196.757812 228.722656 C 196.058594 228.402344 195.464844 228.554688 195.035156 229.207031 C 194.410156 230.160156 193.789062 231.109375 193.363281 232.167969 C 193.101562 232.828125 193.019531 233.5 193.230469 234.238281 C 193.460938 235.050781 193.671875 235.882812 193.625 236.746094 C 193.574219 237.59375 193.449219 237.972656 192.550781 237.441406 C 191.9375 237.082031 191.246094 236.925781 190.527344 236.84375 C 189.503906 236.722656 188.667969 237.015625 187.984375 237.777344 C 187.921875 237.847656 187.847656 237.90625 187.789062 237.980469 C 186.867188 239.160156 185.84375 240.171875 184.269531 240.40625 C 182.320312 240.695312 180.398438 240.671875 178.550781 239.90625 C 177.328125 239.398438 176.113281 238.894531 174.792969 238.671875 C 173.890625 238.523438 172.921875 238.339844 172.265625 239.101562 C 171.609375 239.859375 172.109375 240.714844 172.425781 241.5 C 172.65625 242.066406 172.890625 242.628906 173.105469 243.164062 C 172.765625 243.660156 172.257812 243.65625 171.808594 243.753906 C 171.117188 243.902344 170.398438 243.964844 169.722656 244.167969 C 168.265625 244.601562 166.921875 244.324219 165.613281 243.664062 C 164.222656 242.957031 162.878906 242.179688 161.65625 241.191406 C 161.242188 240.855469 160.84375 240.273438 160.1875 240.542969 C 159.488281 240.835938 159.570312 241.515625 159.558594 242.136719 C 159.546875 242.65625 159.535156 243.183594 159.4375 243.691406 C 159.277344 244.53125 158.972656 244.6875 158.132812 244.402344 C 157.449219 244.167969 156.910156 243.707031 156.363281 243.25 C 155.460938 242.492188 154.558594 241.714844 153.316406 241.535156 C 152.789062 241.460938 152.265625 241.28125 151.929688 241.863281 C 151.609375 242.417969 152.066406 242.71875 152.371094 243.070312 C 153.558594 244.429688 153.5625 244.59375 152.523438 246.121094 C 152.390625 246.316406 152.234375 246.5 152.125 246.707031 C 151.707031 247.523438 151.925781 247.941406 152.835938 248.085938 C 153.273438 248.160156 153.863281 247.898438 154.101562 248.441406 C 154.292969 248.875 154.101562 249.359375 153.945312 249.820312 C 153.738281 250.445312 153.429688 250.621094 152.777344 250.382812 C 150.910156 249.695312 149.015625 249.640625 147.074219 250.175781 C 144.828125 250.796875 143.136719 253.015625 142.832031 255.207031 C 142.804688 255.394531 142.773438 255.597656 142.824219 255.769531 C 143.5 258.179688 144.105469 260.625 146.160156 262.339844 C 146.847656 262.914062 147.515625 263.515625 147.960938 264.324219 C 148.335938 265 148.550781 265.703125 148.40625 266.628906 C 146.617188 266.109375 144.875 265.621094 143.140625 265.101562 C 135.257812 262.761719 127.585938 259.808594 119.890625 256.933594 C 113.429688 254.527344 106.859375 252.402344 100.179688 250.707031 C 96.261719 249.710938 92.574219 248.199219 88.882812 246.648438 C 88.464844 246.472656 87.988281 246.351562 87.703125 245.851562 C 89.164062 244.820312 90.613281 243.792969 92.066406 242.765625 C 98.296875 238.359375 102.78125 232.574219 105.664062 225.523438 C 106.273438 224.035156 106.902344 222.554688 107.472656 221.054688 C 107.957031 219.773438 108.878906 219.292969 110.199219 219.222656 C 111.644531 219.144531 112.867188 219.523438 114.023438 220.398438 C 115.609375 221.59375 116.804688 221.292969 117.414062 219.433594 C 118.691406 215.515625 119.839844 211.515625 119.496094 207.355469 C 119.109375 202.726562 117.300781 198.664062 113.632812 195.632812 C 111.65625 194 109.777344 192.304688 108.230469 190.246094 C 107.308594 189.019531 106.101562 188.117188 104.714844 187.441406 C 103.4375 186.824219 102.253906 186.046875 101.132812 185.160156 C 100.027344 184.28125 98.851562 183.484375 97.683594 182.679688 C 96.765625 182.03125 96.027344 181.230469 95.417969 179.972656 Z M 95.417969 179.972656 " fill-opacity="1" fill-rule="nonzero"/><path fill="#b4dbdc" d="M 176 177.839844 C 175.304688 177.441406 175.101562 176.878906 174.726562 176.46875 C 174.082031 175.769531 173.335938 175.339844 172.367188 175.371094 C 171.417969 175.398438 171.046875 175.820312 171.289062 176.730469 C 171.449219 177.316406 171.742188 177.871094 172.019531 178.417969 C 172.929688 180.269531 172.898438 180.441406 171.253906 181.6875 C 171.144531 181.769531 171.015625 181.828125 170.792969 181.957031 C 170.503906 180.996094 170.265625 180.066406 169.941406 179.160156 C 169.457031 177.800781 168.976562 177.496094 167.507812 177.480469 C 167.320312 177.476562 167.125 177.457031 166.941406 177.484375 C 166.019531 177.621094 165.417969 177.335938 165.121094 176.375 C 164.957031 175.847656 164.609375 175.359375 164.265625 174.910156 C 163.472656 173.867188 162.246094 173.621094 161.140625 174.335938 C 160.589844 174.695312 160.042969 174.804688 159.410156 174.808594 C 158.324219 174.808594 157.238281 174.722656 156.15625 174.90625 C 155.285156 175.058594 154.703125 174.664062 154.351562 173.878906 C 154.058594 173.222656 153.875 172.554688 153.917969 171.824219 C 153.988281 170.519531 153.648438 169.5625 152.175781 169.160156 C 151.007812 168.839844 150.824219 168.324219 151.0625 167.085938 C 151.171875 166.535156 151.34375 165.984375 151.546875 165.457031 C 153.195312 161.09375 153.957031 156.527344 154.625 151.945312 C 154.640625 151.851562 154.640625 151.757812 154.667969 151.667969 C 154.800781 151.191406 154.136719 150.585938 154.753906 150.253906 C 155.203125 150.019531 155.753906 150.410156 156.269531 150.453125 C 157.523438 150.5625 158.703125 150.808594 159.46875 151.964844 C 159.628906 152.210938 159.910156 152.378906 160.207031 152.242188 C 161.066406 151.847656 161.605469 152.429688 162.03125 152.949219 C 163.605469 154.863281 165.613281 155.648438 168.042969 155.496094 C 168.90625 155.4375 169.484375 155.75 169.988281 156.550781 C 170.644531 157.59375 171.75 158.246094 172.796875 158.894531 C 173.34375 159.230469 173.496094 159.5625 173.273438 160.164062 C 172.550781 162.105469 173.136719 163.777344 174.4375 165.257812 C 175.007812 165.910156 175.140625 166.5625 174.988281 167.457031 C 174.605469 169.699219 174.847656 171.867188 176.128906 173.863281 C 176.964844 175.148438 176.273438 176.429688 176 177.839844 Z M 176 177.839844 " fill-opacity="1" fill-rule="nonzero"/><g clip-path="url(#2da8d0d056)"><g clip-path="url(#888f5a76c6)"><path fill="#ffffff" d="M 12.375 208.726562 L 21.300781 208.726562 L 21.300781 217.949219 L 12.375 217.949219 Z M 12.375 208.726562 " fill-opacity="1" fill-rule="nonzero"/></g></g><g clip-path="url(#f813608e55)"><g clip-path="url(#b5f8ca99bb)"><path fill="#ffffff" d="M 19.726562 211.199219 L 29.550781 211.199219 L 29.550781 220.125 L 19.726562 220.125 Z M 19.726562 211.199219 " fill-opacity="1" fill-rule="nonzero"/></g></g><g clip-path="url(#f4beb3c6c4)"><g clip-path="url(#b583fc64c7)"><path fill="#ffffff" d="M 26.25 214.199219 L 37.800781 214.199219 L 37.800781 223.574219 L 26.25 223.574219 Z M 26.25 214.199219 " fill-opacity="1" fill-rule="nonzero"/></g></g><g clip-path="url(#b1f1c9dfda)"><g clip-path="url(#5425f51dbe)"><path fill="#ffffff" d="M 34.5 217.574219 L 44.101562 217.574219 L 44.101562 226.648438 L 34.5 226.648438 Z M 34.5 217.574219 " fill-opacity="1" fill-rule="nonzero"/></g></g><g clip-path="url(#c7f2e69347)"><g clip-path="url(#418e0c850b)"><path fill="#ffffff" d="M 41.101562 220.949219 L 51.523438 220.949219 L 51.523438 230.625 L 41.101562 230.625 Z M 41.101562 220.949219 " fill-opacity="1" fill-rule="nonzero"/></g></g><g clip-path="url(#e1efb1514a)"><g clip-path="url(#d663746b29)"><path fill="#ffffff" d="M 49.125 224.324219 L 59.476562 224.324219 L 59.476562 233.398438 L 49.125 233.398438 Z M 49.125 224.324219 " fill-opacity="1" fill-rule="nonzero"/></g></g><g clip-path="url(#1e2c1a6f9f)"><g clip-path="url(#0444b8a05c)"><path fill="#ffffff" d="M 65.324219 231.898438 L 76.351562 231.898438 L 76.351562 242.175781 L 65.324219 242.175781 Z M 65.324219 231.898438 " fill-opacity="1" fill-rule="nonzero"/></g></g><g clip-path="url(#08f587160e)"><g clip-path="url(#0c4d45dcd5)"><path fill="#ffffff" d="M 64.351562 231 L 75.976562 231 L 75.976562 241.574219 L 64.351562 241.574219 Z M 64.351562 231 " fill-opacity="1" fill-rule="nonzero"/></g></g><g clip-path="url(#6f750789da)"><g clip-path="url(#75a540ac49)"><path fill="#ffffff" d="M 73.273438 236.101562 L 83.25 236.101562 L 83.25 246.375 L 73.273438 246.375 Z M 73.273438 236.101562 " fill-opacity="1" fill-rule="nonzero"/></g></g><g clip-path="url(#34cefb5405)"><g clip-path="url(#d6f71d4a73)"><path fill="#ffffff" d="M 73.5 237 L 81.898438 237 L 81.898438 244.949219 L 73.5 244.949219 Z M 73.5 237 " fill-opacity="1" fill-rule="nonzero"/></g></g><g clip-path="url(#0175c869dd)"><g clip-path="url(#88093c10a9)"><path fill="#ffffff" d="M 73.800781 236.550781 L 82.199219 236.550781 L 82.199219 245.25 L 73.800781 245.25 Z M 73.800781 236.550781 " fill-opacity="1" fill-rule="nonzero"/></g></g><path stroke-linecap="butt" transform="matrix(-0.618506, 0.425707, -0.425225, -0.617805, 96.101211, 150.806928)" fill="none" stroke-linejoin="miter" d="M -0.00100033 1.001936 L 137.856907 1.001251 " stroke="#1d764a" stroke-width="2" stroke-opacity="1" stroke-miterlimit="4"/><path stroke-linecap="butt" transform="matrix(-0.616355, 0.429917, -0.42907, -0.615141, 96.681452, 158.147231)" fill="none" stroke-linejoin="miter" d="M -0.00230364 0.999756 L 126.757387 0.999744 " stroke="#1d764a" stroke-width="2" stroke-opacity="1" stroke-miterlimit="4"/><path stroke-linecap="butt" transform="matrix(-0.617146, 0.429562, -0.428462, -0.615565, 101.089143, 163.343968)" fill="none" stroke-linejoin="miter" d="M -0.000824906 1.002413 L 121.70057 0.997566 " stroke="#1d764a" stroke-width="2" stroke-opacity="1" stroke-miterlimit="4"/><path stroke-linecap="butt" transform="matrix(-0.613741, 0.433167, -0.432471, -0.612755, 100.947053, 172.642839)" fill="none" stroke-linejoin="miter" d="M -0.000238972 0.997928 L 106.84341 0.997677 " stroke="#1d764a" stroke-width="2" stroke-opacity="1" stroke-miterlimit="4"/><path stroke-linecap="butt" transform="matrix(-0.6192, 0.428557, -0.426826, -0.6167, 97.703362, 185.061096)" fill="none" stroke-linejoin="miter" d="M -0.000189477 0.998382 L 88.652906 0.999538 " stroke="#1d764a" stroke-width="2" stroke-opacity="1" stroke-miterlimit="4"/><path stroke-linecap="butt" transform="matrix(-0.610439, 0.433184, -0.43404, -0.611645, 104.190936, 189.373185)" fill="none" stroke-linejoin="miter" d="M -0.000860802 0.999099 L 87.180387 0.998969 " stroke="#1d764a" stroke-width="2" stroke-opacity="1" stroke-miterlimit="4"/><path stroke-linecap="butt" transform="matrix(-0.613112, 0.435396, -0.434249, -0.611496, 109.859822, 194.770286)" fill="none" stroke-linejoin="miter" d="M 0.000827116 0.998353 L 82.786231 1.00079 " stroke="#1d764a" stroke-width="2" stroke-opacity="1" stroke-miterlimit="4"/><path stroke-linecap="butt" transform="matrix(-0.61056, 0.4325, -0.433526, -0.612009, 115.798787, 199.897808)" fill="none" stroke-linejoin="miter" d="M -0.00259768 0.999215 L 79.189119 0.999846 " stroke="#1d764a" stroke-width="2" stroke-opacity="1" stroke-miterlimit="4"/><path stroke-linecap="butt" transform="matrix(-0.609551, 0.428194, -0.431115, -0.61371, 119.029581, 207.727765)" fill="none" stroke-linejoin="miter" d="M 0.000291656 1.001464 L 71.493034 1.000635 " stroke="#1d764a" stroke-width="2" stroke-opacity="1" stroke-miterlimit="4"/><path stroke-linecap="butt" transform="matrix(-0.618874, 0.425912, -0.425192, -0.617828, 104.721223, 226.62312)" fill="none" stroke-linejoin="miter" d="M -0.00197057 1.000883 L 36.948461 0.999807 " stroke="#1d764a" stroke-width="2" stroke-opacity="1" stroke-miterlimit="4"/><path stroke-linecap="butt" transform="matrix(-0.616355, 0.429917, -0.42907, -0.615141, 94.107867, 143.428995)" fill="none" stroke-linejoin="miter" d="M -0.00200236 1.000801 L 126.757688 1.000789 " stroke="#1d764a" stroke-width="2" stroke-opacity="1" stroke-miterlimit="4"/><path stroke-linecap="butt" transform="matrix(-0.616355, 0.429917, -0.42907, -0.615141, 95.997032, 132.903625)" fill="none" stroke-linejoin="miter" d="M 0.00213817 1.000553 L 126.757565 0.997562 " stroke="#1d764a" stroke-width="2" stroke-opacity="1" stroke-miterlimit="4"/><path stroke-linecap="butt" transform="matrix(-0.613195, 0.428109, -0.429337, -0.614955, 115.163575, 111.851227)" fill="none" stroke-linejoin="miter" d="M -0.00160309 1.001969 L 147.423879 0.996967 " stroke="#1d764a" stroke-width="2" stroke-opacity="1" stroke-miterlimit="4"/><path stroke-linecap="butt" transform="matrix(-0.615022, 0.426077, -0.427106, -0.616507, 115.277399, 103.074778)" fill="none" stroke-linejoin="miter" d="M -0.00233801 1.000396 L 110.281951 1.002518 " stroke="#1d764a" stroke-width="2" stroke-opacity="1" stroke-miterlimit="4"/><path stroke-linecap="butt" transform="matrix(-0.618831, 0.426569, -0.425657, -0.617508, 114.32627, 95.642886)" fill="none" stroke-linejoin="miter" d="M -0.0033613 1.00082 L 94.805966 1.002968 " stroke="#1d764a" stroke-width="2" stroke-opacity="1" stroke-miterlimit="4"/><path stroke-linecap="butt" transform="matrix(-0.611091, 0.42969, -0.431394, -0.613514, 96.918236, 97.382382)" fill="none" stroke-linejoin="miter" d="M -0.00106505 0.998172 L 67.271082 0.998061 " stroke="#1d764a" stroke-width="2" stroke-opacity="1" stroke-miterlimit="4"/><path stroke-linecap="butt" transform="matrix(-0.612742, 0.432489, -0.432489, -0.612742, 83.00625, 95.888972)" fill="none" stroke-linejoin="miter" d="M 0.000358338 0.998435 L 44.010499 1.002755 " stroke="#1d764a" stroke-width="2" stroke-opacity="1" stroke-miterlimit="4"/><path stroke-linecap="butt" transform="matrix(-0.614868, 0.424003, -0.425769, -0.61743, 69.906958, 96.28675)" fill="none" stroke-linejoin="miter" d="M -0.000234342 1.002028 L 30.125614 1.002039 " stroke="#1d764a" stroke-width="2" stroke-opacity="1" stroke-miterlimit="4"/><g clip-path="url(#bb7ef627d6)"><path fill="#1d764a" d="M 131.785156 139.84375 L 75.363281 139.84375 C 69.820312 139.84375 65.324219 144.386719 65.324219 149.988281 L 65.324219 168.097656 C 65.324219 173.695312 69.820312 178.242188 75.363281 178.242188 L 82.691406 178.242188 L 81.34375 188.328125 C 81.214844 189.3125 82.296875 189.996094 83.113281 189.441406 L 99.691406 178.242188 L 131.785156 178.242188 C 137.332031 178.242188 141.824219 173.695312 141.824219 168.097656 L 141.824219 149.988281 C 141.824219 144.386719 137.332031 139.84375 131.785156 139.84375 " fill-opacity="1" fill-rule="nonzero"/></g><g fill="#ffffff" fill-opacity="1"><g transform="translate(71.187181, 161.442733)"><g><path d="M 5.171875 0 L 1.90625 -3.625 L 1.90625 0 L 0.875 0 L 0.875 -7.921875 L 1.90625 -7.921875 L 1.90625 -4.25 L 5.1875 -7.921875 L 6.5 -7.921875 L 2.90625 -3.953125 L 6.53125 0 Z M 5.171875 0 "/></g></g></g><g fill="#ffffff" fill-opacity="1"><g transform="translate(77.996129, 161.442733)"><g><path d="M 6.40625 -6.234375 L 6.40625 0 L 5.375 0 L 5.375 -0.921875 C 5.175781 -0.597656 4.898438 -0.347656 4.546875 -0.171875 C 4.191406 0.00390625 3.800781 0.09375 3.375 0.09375 C 2.894531 0.09375 2.457031 -0.00390625 2.0625 -0.203125 C 1.675781 -0.410156 1.367188 -0.710938 1.140625 -1.109375 C 0.921875 -1.515625 0.8125 -2.003906 0.8125 -2.578125 L 0.8125 -6.234375 L 1.84375 -6.234375 L 1.84375 -2.71875 C 1.84375 -2.101562 2 -1.628906 2.3125 -1.296875 C 2.625 -0.972656 3.046875 -0.8125 3.578125 -0.8125 C 4.128906 -0.8125 4.566406 -0.976562 4.890625 -1.3125 C 5.210938 -1.65625 5.375 -2.15625 5.375 -2.8125 L 5.375 -6.234375 Z M 6.40625 -6.234375 "/></g></g></g><g fill="#ffffff" fill-opacity="1"><g transform="translate(85.271138, 161.442733)"><g><path d="M 1.90625 -8.421875 L 1.90625 0 L 0.875 0 L 0.875 -8.421875 Z M 1.90625 -8.421875 "/></g></g></g><g fill="#ffffff" fill-opacity="1"><g transform="translate(88.067467, 161.442733)"><g><path d="M 3.59375 0.109375 C 3.007812 0.109375 2.476562 -0.0195312 2 -0.28125 C 1.53125 -0.550781 1.160156 -0.929688 0.890625 -1.421875 C 0.617188 -1.910156 0.484375 -2.476562 0.484375 -3.125 C 0.484375 -3.757812 0.617188 -4.320312 0.890625 -4.8125 C 1.171875 -5.300781 1.550781 -5.675781 2.03125 -5.9375 C 2.507812 -6.195312 3.046875 -6.328125 3.640625 -6.328125 C 4.234375 -6.328125 4.765625 -6.195312 5.234375 -5.9375 C 5.710938 -5.675781 6.09375 -5.300781 6.375 -4.8125 C 6.65625 -4.332031 6.796875 -3.769531 6.796875 -3.125 C 6.796875 -2.476562 6.648438 -1.910156 6.359375 -1.421875 C 6.078125 -0.929688 5.691406 -0.550781 5.203125 -0.28125 C 4.722656 -0.0195312 4.1875 0.109375 3.59375 0.109375 Z M 3.59375 -0.8125 C 3.96875 -0.8125 4.316406 -0.894531 4.640625 -1.0625 C 4.960938 -1.238281 5.222656 -1.5 5.421875 -1.84375 C 5.628906 -2.195312 5.734375 -2.625 5.734375 -3.125 C 5.734375 -3.625 5.632812 -4.046875 5.4375 -4.390625 C 5.238281 -4.742188 4.976562 -5.003906 4.65625 -5.171875 C 4.34375 -5.347656 4 -5.4375 3.625 -5.4375 C 3.25 -5.4375 2.898438 -5.347656 2.578125 -5.171875 C 2.265625 -5.003906 2.015625 -4.742188 1.828125 -4.390625 C 1.640625 -4.046875 1.546875 -3.625 1.546875 -3.125 C 1.546875 -2.613281 1.640625 -2.179688 1.828125 -1.828125 C 2.015625 -1.484375 2.257812 -1.226562 2.5625 -1.0625 C 2.875 -0.894531 3.21875 -0.8125 3.59375 -0.8125 Z M 3.59375 -0.8125 "/></g></g></g><g fill="#ffffff" fill-opacity="1"><g transform="translate(95.342476, 161.442733)"><g><path d="M 3.90625 -6.34375 C 4.664062 -6.34375 5.28125 -6.113281 5.75 -5.65625 C 6.226562 -5.195312 6.46875 -4.535156 6.46875 -3.671875 L 6.46875 0 L 5.4375 0 L 5.4375 -3.53125 C 5.4375 -4.144531 5.28125 -4.617188 4.96875 -4.953125 C 4.65625 -5.285156 4.234375 -5.453125 3.703125 -5.453125 C 3.148438 -5.453125 2.710938 -5.28125 2.390625 -4.9375 C 2.066406 -4.59375 1.90625 -4.097656 1.90625 -3.453125 L 1.90625 0 L 0.875 0 L 0.875 -6.234375 L 1.90625 -6.234375 L 1.90625 -5.34375 C 2.113281 -5.664062 2.394531 -5.910156 2.75 -6.078125 C 3.101562 -6.253906 3.488281 -6.34375 3.90625 -6.34375 Z M 3.90625 -6.34375 "/></g></g></g><g fill="#ffffff" fill-opacity="1"><g transform="translate(102.617485, 161.442733)"><g><path d="M 1.90625 -5.078125 C 2.113281 -5.441406 2.421875 -5.738281 2.828125 -5.96875 C 3.234375 -6.207031 3.707031 -6.328125 4.25 -6.328125 C 4.800781 -6.328125 5.300781 -6.195312 5.75 -5.9375 C 6.195312 -5.675781 6.550781 -5.300781 6.8125 -4.8125 C 7.070312 -4.332031 7.203125 -3.773438 7.203125 -3.140625 C 7.203125 -2.515625 7.070312 -1.953125 6.8125 -1.453125 C 6.550781 -0.960938 6.195312 -0.578125 5.75 -0.296875 C 5.300781 -0.0234375 4.800781 0.109375 4.25 0.109375 C 3.71875 0.109375 3.25 -0.0078125 2.84375 -0.25 C 2.4375 -0.488281 2.125 -0.789062 1.90625 -1.15625 L 1.90625 2.953125 L 0.875 2.953125 L 0.875 -6.234375 L 1.90625 -6.234375 Z M 6.140625 -3.140625 C 6.140625 -3.609375 6.046875 -4.015625 5.859375 -4.359375 C 5.671875 -4.710938 5.414062 -4.976562 5.09375 -5.15625 C 4.769531 -5.34375 4.414062 -5.4375 4.03125 -5.4375 C 3.644531 -5.4375 3.289062 -5.34375 2.96875 -5.15625 C 2.644531 -4.96875 2.382812 -4.695312 2.1875 -4.34375 C 2 -4 1.90625 -3.59375 1.90625 -3.125 C 1.90625 -2.65625 2 -2.242188 2.1875 -1.890625 C 2.382812 -1.535156 2.644531 -1.265625 2.96875 -1.078125 C 3.289062 -0.898438 3.644531 -0.8125 4.03125 -0.8125 C 4.414062 -0.8125 4.769531 -0.898438 5.09375 -1.078125 C 5.414062 -1.265625 5.671875 -1.535156 5.859375 -1.890625 C 6.046875 -2.242188 6.140625 -2.660156 6.140625 -3.140625 Z M 6.140625 -3.140625 "/></g></g></g><g fill="#ffffff" fill-opacity="1"><g transform="translate(110.301711, 161.442733)"><g><path d="M 1.90625 -5.21875 C 2.09375 -5.570312 2.351562 -5.847656 2.6875 -6.046875 C 3.03125 -6.242188 3.441406 -6.34375 3.921875 -6.34375 L 3.921875 -5.28125 L 3.65625 -5.28125 C 2.488281 -5.28125 1.90625 -4.648438 1.90625 -3.390625 L 1.90625 0 L 0.875 0 L 0.875 -6.234375 L 1.90625 -6.234375 Z M 1.90625 -5.21875 "/></g></g></g><g fill="#ffffff" fill-opacity="1"><g transform="translate(114.541678, 161.442733)"><g><path d="M 3.59375 0.109375 C 3.007812 0.109375 2.476562 -0.0195312 2 -0.28125 C 1.53125 -0.550781 1.160156 -0.929688 0.890625 -1.421875 C 0.617188 -1.910156 0.484375 -2.476562 0.484375 -3.125 C 0.484375 -3.757812 0.617188 -4.320312 0.890625 -4.8125 C 1.171875 -5.300781 1.550781 -5.675781 2.03125 -5.9375 C 2.507812 -6.195312 3.046875 -6.328125 3.640625 -6.328125 C 4.234375 -6.328125 4.765625 -6.195312 5.234375 -5.9375 C 5.710938 -5.675781 6.09375 -5.300781 6.375 -4.8125 C 6.65625 -4.332031 6.796875 -3.769531 6.796875 -3.125 C 6.796875 -2.476562 6.648438 -1.910156 6.359375 -1.421875 C 6.078125 -0.929688 5.691406 -0.550781 5.203125 -0.28125 C 4.722656 -0.0195312 4.1875 0.109375 3.59375 0.109375 Z M 3.59375 -0.8125 C 3.96875 -0.8125 4.316406 -0.894531 4.640625 -1.0625 C 4.960938 -1.238281 5.222656 -1.5 5.421875 -1.84375 C 5.628906 -2.195312 5.734375 -2.625 5.734375 -3.125 C 5.734375 -3.625 5.632812 -4.046875 5.4375 -4.390625 C 5.238281 -4.742188 4.976562 -5.003906 4.65625 -5.171875 C 4.34375 -5.347656 4 -5.4375 3.625 -5.4375 C 3.25 -5.4375 2.898438 -5.347656 2.578125 -5.171875 C 2.265625 -5.003906 2.015625 -4.742188 1.828125 -4.390625 C 1.640625 -4.046875 1.546875 -3.625 1.546875 -3.125 C 1.546875 -2.613281 1.640625 -2.179688 1.828125 -1.828125 C 2.015625 -1.484375 2.257812 -1.226562 2.5625 -1.0625 C 2.875 -0.894531 3.21875 -0.8125 3.59375 -0.8125 Z M 3.59375 -0.8125 "/></g></g></g><g fill="#ffffff" fill-opacity="1"><g transform="translate(121.816687, 161.442733)"><g><path d="M 3.453125 -6.328125 C 3.984375 -6.328125 4.453125 -6.207031 4.859375 -5.96875 C 5.265625 -5.738281 5.566406 -5.445312 5.765625 -5.09375 L 5.765625 -6.234375 L 6.8125 -6.234375 L 6.8125 0.140625 C 6.8125 0.703125 6.6875 1.207031 6.4375 1.65625 C 6.195312 2.101562 5.851562 2.453125 5.40625 2.703125 C 4.957031 2.953125 4.429688 3.078125 3.828125 3.078125 C 3.015625 3.078125 2.332031 2.878906 1.78125 2.484375 C 1.238281 2.097656 0.914062 1.570312 0.8125 0.90625 L 1.84375 0.90625 C 1.957031 1.289062 2.191406 1.597656 2.546875 1.828125 C 2.898438 2.054688 3.328125 2.171875 3.828125 2.171875 C 4.398438 2.171875 4.863281 1.992188 5.21875 1.640625 C 5.582031 1.285156 5.765625 0.785156 5.765625 0.140625 L 5.765625 -1.171875 C 5.554688 -0.804688 5.25 -0.5 4.84375 -0.25 C 4.445312 -0.0078125 3.984375 0.109375 3.453125 0.109375 C 2.890625 0.109375 2.382812 -0.0234375 1.9375 -0.296875 C 1.488281 -0.578125 1.132812 -0.960938 0.875 -1.453125 C 0.613281 -1.953125 0.484375 -2.515625 0.484375 -3.140625 C 0.484375 -3.773438 0.613281 -4.332031 0.875 -4.8125 C 1.132812 -5.300781 1.488281 -5.675781 1.9375 -5.9375 C 2.382812 -6.195312 2.890625 -6.328125 3.453125 -6.328125 Z M 5.765625 -3.125 C 5.765625 -3.59375 5.671875 -4 5.484375 -4.34375 C 5.296875 -4.695312 5.039062 -4.96875 4.71875 -5.15625 C 4.394531 -5.34375 4.039062 -5.4375 3.65625 -5.4375 C 3.269531 -5.4375 2.914062 -5.34375 2.59375 -5.15625 C 2.269531 -4.976562 2.015625 -4.710938 1.828125 -4.359375 C 1.640625 -4.015625 1.546875 -3.609375 1.546875 -3.140625 C 1.546875 -2.660156 1.640625 -2.242188 1.828125 -1.890625 C 2.015625 -1.535156 2.269531 -1.265625 2.59375 -1.078125 C 2.914062 -0.898438 3.269531 -0.8125 3.65625 -0.8125 C 4.039062 -0.8125 4.394531 -0.898438 4.71875 -1.078125 C 5.039062 -1.265625 5.296875 -1.535156 5.484375 -1.890625 C 5.671875 -2.242188 5.765625 -2.65625 5.765625 -3.125 Z M 5.765625 -3.125 "/></g></g></g><g fill="#ffffff" fill-opacity="1"><g transform="translate(129.500913, 161.442733)"><g><path d="M 3.59375 0.109375 C 3.007812 0.109375 2.476562 -0.0195312 2 -0.28125 C 1.53125 -0.550781 1.160156 -0.929688 0.890625 -1.421875 C 0.617188 -1.910156 0.484375 -2.476562 0.484375 -3.125 C 0.484375 -3.757812 0.617188 -4.320312 0.890625 -4.8125 C 1.171875 -5.300781 1.550781 -5.675781 2.03125 -5.9375 C 2.507812 -6.195312 3.046875 -6.328125 3.640625 -6.328125 C 4.234375 -6.328125 4.765625 -6.195312 5.234375 -5.9375 C 5.710938 -5.675781 6.09375 -5.300781 6.375 -4.8125 C 6.65625 -4.332031 6.796875 -3.769531 6.796875 -3.125 C 6.796875 -2.476562 6.648438 -1.910156 6.359375 -1.421875 C 6.078125 -0.929688 5.691406 -0.550781 5.203125 -0.28125 C 4.722656 -0.0195312 4.1875 0.109375 3.59375 0.109375 Z M 3.59375 -0.8125 C 3.96875 -0.8125 4.316406 -0.894531 4.640625 -1.0625 C 4.960938 -1.238281 5.222656 -1.5 5.421875 -1.84375 C 5.628906 -2.195312 5.734375 -2.625 5.734375 -3.125 C 5.734375 -3.625 5.632812 -4.046875 5.4375 -4.390625 C 5.238281 -4.742188 4.976562 -5.003906 4.65625 -5.171875 C 4.34375 -5.347656 4 -5.4375 3.625 -5.4375 C 3.25 -5.4375 2.898438 -5.347656 2.578125 -5.171875 C 2.265625 -5.003906 2.015625 -4.742188 1.828125 -4.390625 C 1.640625 -4.046875 1.546875 -3.625 1.546875 -3.125 C 1.546875 -2.613281 1.640625 -2.179688 1.828125 -1.828125 C 2.015625 -1.484375 2.257812 -1.226562 2.5625 -1.0625 C 2.875 -0.894531 3.21875 -0.8125 3.59375 -0.8125 Z M 3.59375 -0.8125 "/></g></g></g></svg>